<?xml version="1.0"?>
<!DOCTYPE svg PUBLIC "-//W3C//DTD SVG 1.1//EN"
  "http://www.w3.org/Graphics/SVG/1.1/DTD/svg11.dtd">
<svg width="36" height="36" viewBox="0 0 36 36" fill="none" xmlns="http://www.w3.org/2000/svg">
<path fill-rule="evenodd" clip-rule="evenodd" d="M18 0C32.31 0 36 3.69 36 18C36 32.31 32.31 36 18 36C3.69 36 0 32.31 0 18C0 3.69 3.69 0 18 0ZM25.35 19.74L25.11 19.725C20.2805 19.6065 16.3935 15.7195 16.275 10.89V10.65C16.275 10.095 16.32 9.54 16.425 9C11.9018 9.82595 8.70768 13.8994 8.98433 18.4891C9.26098 23.0787 12.9213 26.739 17.5109 27.0157C22.1006 27.2923 26.1741 24.0982 27 19.575C26.475 19.68 25.92 19.725 25.35 19.725V19.74ZM17.895 25.29C15.8252 25.2868 13.8552 24.4003 12.48 22.8533C11.1049 21.3063 10.4555 19.2459 10.695 17.19C11.1558 21.4248 14.5002 24.7692 18.735 25.23C18.465 25.26 18.18 25.29 17.895 25.29Z" fill="#7B1FA2"/>
</svg>
