<?xml version="1.0"?>
<!DOCTYPE svg PUBLIC "-//W3C//DTD SVG 1.1//EN"
  "http://www.w3.org/Graphics/SVG/1.1/DTD/svg11.dtd">

<svg width="49" height="48" viewBox="0 0 49 48" fill="none" xmlns="http://www.w3.org/2000/svg">
<g clip-path="url(#clip0_1543_5578)">
<path d="M24.6665 48C37.9214 48 48.6665 37.2549 48.6665 24C48.6665 10.7451 37.9214 0 24.6665 0C11.4116 0 0.666504 10.7451 0.666504 24C0.666504 37.2549 11.4116 48 24.6665 48Z" fill="#FAEDFC"/>
</g>
<path fill-rule="evenodd" clip-rule="evenodd" d="M37.8995 24.454L26.1995 12.754C25.7315 12.286 25.0815 12 24.3665 12H15.2665C13.8365 12 12.6665 13.17 12.6665 14.6V23.7C12.6665 24.415 12.9525 25.065 13.4335 25.546L25.1335 37.246C25.6015 37.714 26.2515 38 26.9665 38C27.6815 38 28.3315 37.714 28.7995 37.233L37.8995 28.133C38.3805 27.665 38.6665 27.015 38.6665 26.3C38.6665 25.585 38.3675 24.922 37.8995 24.454ZM17.2165 18.5C16.1375 18.5 15.2665 17.629 15.2665 16.55C15.2665 15.471 16.1375 14.6 17.2165 14.6C18.2955 14.6 19.1665 15.471 19.1665 16.55C19.1665 17.629 18.2955 18.5 17.2165 18.5Z" fill="#7B1FA2"/>
<defs>
<clipPath id="clip0_1543_5578">
<rect width="48" height="48" fill="white" transform="translate(0.666504)"/>
</clipPath>
</defs>
</svg>


