<?xml version="1.0"?>
<!DOCTYPE svg PUBLIC "-//W3C//DTD SVG 1.1//EN"
  "http://www.w3.org/Graphics/SVG/1.1/DTD/svg11.dtd">
<svg width="49" height="48" viewBox="0 0 49 48" fill="none" xmlns="http://www.w3.org/2000/svg">
<g clip-path="url(#clip0_1676_1916)">
<rect x="2.3335" y="2" width="44" height="44" rx="22" fill="#B3EAC6"/>
<path fill-rule="evenodd" clip-rule="evenodd" d="M31.3335 15H30.3335V13H28.3335V15H20.3335V13H18.3335V15H17.3335C16.2235 15 15.3435 15.9 15.3435 17L15.3335 31C15.3335 32.1 16.2235 33 17.3335 33H31.3335C32.4335 33 33.3335 32.1 33.3335 31V17C33.3335 15.9 32.4335 15 31.3335 15ZM31.3335 20V31H17.3335V20H31.3335ZM24.3335 22H19.3335V27H24.3335V22Z" fill="#218242"/>
</g>
<defs>
<clipPath id="clip0_1676_1916">
<rect width="44" height="44" fill="white" transform="translate(2.3335 2)"/>
</clipPath>
</defs>
</svg>