<svg viewBox="0 0 24 24" xmlns="http://www.w3.org/2000/svg"><path d="M12 24C18.6274 24 24 18.6274 24 12C24 5.37255 18.6274 0 12 0C5.37255 0 0 5.37255 0 12C0 18.6274 5.37255 24 12 24Z" fill="#FAEDFC"/><path fill-rule="evenodd" clip-rule="evenodd" d="M18.6165 12.227L12.7665 6.377C12.5325 6.143 12.2075 6 11.85 6H7.3C6.585 6 6 6.585 6 7.3V11.85C6 12.2075 6.143 12.5325 6.3835 12.773L12.2335 18.623C12.4675 18.857 12.7925 19 13.15 19C13.5075 19 13.8325 18.857 14.0665 18.6165L18.6165 14.0665C18.857 13.8325 19 13.5075 19 13.15C19 12.7925 18.8505 12.461 18.6165 12.227ZM8.275 9.25C7.7355 9.25 7.3 8.8145 7.3 8.275C7.3 7.7355 7.7355 7.3 8.275 7.3C8.8145 7.3 9.25 7.7355 9.25 8.275C9.25 8.8145 8.8145 9.25 8.275 9.25Z" fill="#7B1FA2"/></svg>
