<?xml version="1.0" encoding="UTF-8"?>
<svg width="18px" height="26px" viewBox="0 0 18 26" version="1.1" xmlns="http://www.w3.org/2000/svg" xmlns:xlink="http://www.w3.org/1999/xlink">
    <!-- Generator: Sketch 48.2 (47327) - http://www.bohemiancoding.com/sketch -->
    <title>rosette</title>
    <desc>Created with Sketch.</desc>
    <defs></defs>
    <g id="xs_review_closed_viewV7.0B" stroke="none" stroke-width="1" fill="none" fill-rule="evenodd" transform="translate(-20.000000, -243.000000)">
        <g id="**-TOP-RATED" transform="translate(20.000000, 243.000000)">
            <g id="rosette">
                <path d="M4.1164133,9.79809065 L10.1164133,9.79809065 C10.668698,9.79809065 11.1164133,10.2458059 11.1164133,10.7980906 L11.1164133,23.7692084 C11.1164133,24.3214932 10.668698,24.7692084 10.1164133,24.7692084 C9.89613407,24.7692084 9.68201843,24.6964754 9.50731597,24.5623039 L7.80519407,23.2550743 C7.45260804,22.9842882 6.96359008,22.9787855 6.60500004,23.2415691 L4.70751,24.6320961 C4.26203673,24.9585498 3.63626629,24.8620654 3.3098126,24.4165921 C3.18415715,24.2451248 3.1164133,24.0380756 3.1164133,23.8254954 L3.1164133,10.7980906 C3.1164133,10.2458059 3.56412855,9.79809065 4.1164133,9.79809065 Z" id="Rectangle-4" fill="#316504" transform="translate(7.116413, 17.311827) rotate(22.000000) translate(-7.116413, -17.311827) "></path>
                <path d="M8.42700394,9.93441265 L14.4270039,9.93441265 C14.9792887,9.93441265 15.4270039,10.3821279 15.4270039,10.9344126 L15.4270039,23.9055304 C15.4270039,24.4578152 14.9792887,24.9055304 14.4270039,24.9055304 C14.2067247,24.9055304 13.9926091,24.8327974 13.8179066,24.6986259 L12.1157847,23.3913963 C11.7631987,23.1206102 11.2741807,23.1151075 10.9155907,23.3778911 L9.01810063,24.7684181 C8.57262737,25.0948718 7.94685692,24.9983874 7.62040323,24.5529141 C7.49474779,24.3814468 7.42700394,24.1743976 7.42700394,23.9618174 L7.42700394,10.9344126 C7.42700394,10.3821279 7.87471919,9.93441265 8.42700394,9.93441265 Z" id="Rectangle-4-Copy" fill="#3C7714" transform="translate(11.427004, 17.448149) rotate(-21.000000) translate(-11.427004, -17.448149) "></path>
                <path d="M10.3612159,0.577350269 L15.7224319,3.67264973 C16.341234,4.02991532 16.7224319,4.69016936 16.7224319,5.40470054 L16.7224319,11.5952995 C16.7224319,12.3098306 16.341234,12.9700847 15.7224319,13.3273503 L10.3612159,16.4226497 C9.74241378,16.7799153 8.98001809,16.7799153 8.36121593,16.4226497 L3,13.3273503 C2.38119785,12.9700847 2,12.3098306 2,11.5952995 L2,5.40470054 C2,4.69016936 2.38119785,4.02991532 3,3.67264973 L8.36121593,0.577350269 C8.98001809,0.220084679 9.74241378,0.220084679 10.3612159,0.577350269 Z" id="Polygon" fill="#4A8D23"></path>
                <path d="M12.7736502,7.07853907 L9.06208779,11.5608084 C8.99898866,11.6374288 8.92349619,11.69602 8.83560812,11.7365837 C8.74772005,11.7771474 8.65419952,11.797429 8.55504375,11.797429 L8.53476199,11.797429 C8.43109913,11.7929219 8.33419835,11.7670066 8.24405674,11.7196822 C8.15391512,11.6723579 8.07954941,11.6058794 8.02095736,11.5202449 L6.12123234,8.82953117 C6.01756949,8.6807975 5.98038663,8.51741828 6.00968265,8.33938859 C6.03897868,8.1613589 6.12799219,8.02051474 6.27672585,7.91685189 C6.42545951,7.80868195 6.58883874,7.77037234 6.76686842,7.80192191 C6.94489811,7.83347147 7.08574227,7.92361173 7.18940513,8.0723454 L8.59560727,10.0667186 L11.7595621,6.24022625 C11.8767462,6.10050675 12.0254776,6.02163402 12.2057609,6.0036057 C12.3860441,5.98557738 12.546043,6.03515452 12.6857626,6.15233862 C12.8254821,6.26952272 12.903228,6.41825415 12.9190028,6.59853738 C12.9347776,6.77882061 12.8863272,6.93881957 12.7736502,7.07853907 Z" id="юде" fill="#FFFFFF"></path>
            </g>
        </g>
    </g>
</svg>